<svg xmlns="http://www.w3.org/2000/svg" width="17.18" height="15.94" viewBox="0 0 18 16">
  <metadata><?xpacket begin="﻿" id="W5M0MpCehiHzreSzNTczkc9d"?>
<x:xmpmeta xmlns:x="adobe:ns:meta/" x:xmptk="Adobe XMP Core 5.6-c138 79.159824, 2016/09/14-01:09:01        ">
   <rdf:RDF xmlns:rdf="http://www.w3.org/1999/02/22-rdf-syntax-ns#">
      <rdf:Description rdf:about=""/>
   </rdf:RDF>
</x:xmpmeta>





















<?xpacket end="w"?></metadata>
<defs>
    <style>
      .cls-1 {
        fill: #fff;
        fill-rule: evenodd;
      }
    </style>
  </defs>
  <path id="fa-dropbox" class="cls-1" d="M1088.92,6407.08l5.05,3.29,3.53-2.94-5.09-3.14Zm12.14,3.92-3.54-2.93v-0.02l-0.01.01-0.01-.01v0.02l-3.53,2.93-1.51-.99v1.11l5.04,3.02v0.01l0.01-.01,0.01,0.01v-0.01l5.05-3.02v-1.11Zm-12.14-9.5,3.49,2.79,5.09-3.14-3.53-2.94Zm8.58,5.93,3.54,2.94,5.04-3.29-3.49-2.79Zm0-6.28,5.09,3.14,3.49-2.79-5.04-3.29Z" transform="translate(-1088.91 -6398.22)"/>
</svg>
