<svg width="30" height="30" viewBox="0 0 30 30" xmlns="http://www.w3.org/2000/svg" xmlns:xlink="http://www.w3.org/1999/xlink"><title>1499178876_code-programming-php-software-develop-command-language</title><defs><path id="a" d="M.002 16.216h16.214V0H.002z"/></defs><g fill="none" fill-rule="evenodd"><circle fill="#4990E2" fill-rule="nonzero" cx="15" cy="15" r="15"/><g transform="translate(7.297 7.297)"><mask id="b" fill="#fff"><use xlink:href="#a"/></mask><path d="M15.223 4.218c.035.258.054.535.054.834 0 .822-.154 1.747-.617 2.904l-2.476 7.16a8.103 8.103 0 0 0 4.032-7.008 8.07 8.07 0 0 0-.993-3.89zM8.25 8.817l-2.433 7.069a8.105 8.105 0 0 0 4.983-.13.765.765 0 0 1-.058-.111L8.25 8.817zm5.331-1.118c0-1.003-.36-1.696-.668-2.236-.411-.668-.796-1.234-.796-1.902 0-.745.564-1.439 1.361-1.439.036 0 .07.005.105.007A8.077 8.077 0 0 0 8.108 0a8.1 8.1 0 0 0-6.775 3.654c.191.006.37.01.522.01.848 0 2.161-.103 2.161-.103.437-.025.489.617.052.668 0 0-.44.052-.928.077l2.953 8.783 1.774-5.321-1.263-3.462c-.437-.025-.85-.077-.85-.077-.437-.026-.386-.694.051-.668 0 0 1.339.103 2.136.103.847 0 2.16-.103 2.16-.103.438-.025.49.617.052.668 0 0-.44.052-.927.077l2.93 8.716.808-2.702c.411-1.054.617-1.927.617-2.621zM0 8.108a8.109 8.109 0 0 0 4.57 7.297L.702 4.808A8.079 8.079 0 0 0 0 8.108z" fill="#FFF" mask="url(#b)"/></g></g></svg>