<svg width="63" height="65" viewBox="0 0 63 65" xmlns="http://www.w3.org/2000/svg" xmlns:xlink="http://www.w3.org/1999/xlink"><title>Group 32</title><defs><path id="a" d="M31.448.172H.01V65h62.873V.172H31.448z"/></defs><g fill="none" fill-rule="evenodd"><path fill="#14DF7D" d="M24.465 31.447h37.152V10.87H24.852zm0 17h37.152V36.02H24.852z"/><path d="M15.17 5.248h5.862a.815.815 0 1 0 0-1.63H15.17a.815.815 0 1 0 0 1.63zm2.931 51.779a2.66 2.66 0 0 0-2.657 2.656 2.659 2.659 0 0 0 2.657 2.655 2.66 2.66 0 0 0 2.658-2.655 2.66 2.66 0 0 0-2.658-2.656zm0 3.682c-.566 0-1.027-.46-1.027-1.026a1.028 1.028 0 0 1 2.054 0c0 .566-.461 1.026-1.027 1.026zM7.885 19.307h10.3a.815.815 0 0 0 0-1.63h-10.3a.815.815 0 1 0 0 1.63zm0 14.729h10.3a.815.815 0 1 0 0-1.63h-10.3a.815.815 0 1 0 0 1.63z" fill="#000"/><mask id="b" fill="#fff"><use xlink:href="#a"/></mask><path d="M22.54 35.42H7.884a.815.815 0 1 0 0 1.628H22.54a.815.815 0 1 0 0-1.629z" fill="#000" mask="url(#b)"/><path d="M62.07 32.545c.45 0 .814-.364.814-.814V10.85a.815.815 0 0 0-.815-.814H36.202v-6.47A3.399 3.399 0 0 0 32.806.172H3.396A3.4 3.4 0 0 0 0 3.566v58.04A3.4 3.4 0 0 0 3.396 65h29.41a3.398 3.398 0 0 0 3.396-3.394V49.483h25.867c.45 0 .815-.364.815-.815V36.365a.815.815 0 0 0-.815-.816H36.202v-3.004h25.867zm-36.475-1.629h35.658v-19.25H25.595v19.25zm-.816 4.633a.815.815 0 0 0-.815.816v4.43H5.434V27.328h18.53v2.066H7.885a.815.815 0 1 0 0 1.63h16.08v.707c0 .45.364.815.814.815h5.989v3.003h-5.989zm0 13.934h5.989v1.373H5.434V45.35h18.53v3.319c0 .45.365.814.815.814zm-.815-34.818H7.885a.815.815 0 1 0 0 1.63h16.08v6.558H5.434V12.746h18.53v1.919zM3.396 1.802h29.41c.973 0 1.765.791 1.765 1.764V7.87H1.631V3.566c0-.973.792-1.764 1.765-1.764zm29.41 61.569H3.396a1.767 1.767 0 0 1-1.765-1.765v-5.644h32.94v5.644c0 .973-.792 1.765-1.765 1.765zm1.765-9.039H1.631V9.502h32.94v.535H24.78a.815.815 0 0 0-.815.815v.265H4.62a.815.815 0 0 0-.815.815v11.736c0 .45.364.815.815.815h19.345v1.215H4.62a.815.815 0 0 0-.815.814v15.099c0 .45.364.814.815.814h19.345v1.295H4.62a.815.815 0 0 0-.815.815v7.136c0 .45.364.815.815.815h26.964c.45 0 .815-.365.815-.815v-2.188h2.173v4.849zm-8.976-6.479h35.658V37.18H25.595v10.674zm6.803-12.304h2.173v-3.003h-2.173v3.003z" fill="#000" mask="url(#b)"/><path d="M29.296 16.777h28.257a.815.815 0 1 0 0-1.63H29.296a.815.815 0 0 0 0 1.63zm0 4.167H43.54a.815.815 0 1 0 0-1.63H29.296a.815.815 0 1 0 0 1.63zm0 20.037h28.257a.815.815 0 1 0 0-1.629H29.296a.815.815 0 1 0 0 1.63zm0 4.167H43.54a.815.815 0 1 0 0-1.63H29.296a.815.815 0 0 0 0 1.63zm0-20.038h20.266a.815.815 0 1 0 0-1.63H29.296a.815.815 0 1 0 0 1.63zM16.343 47.302H7.885a.815.815 0 0 0 0 1.63h8.458a.815.815 0 1 0 0-1.63z" fill="#000"/></g></svg>