<svg width="62" height="55" viewBox="0 0 62 55" xmlns="http://www.w3.org/2000/svg"><title>server</title><g transform="translate(.333)" fill="none" fill-rule="evenodd"><path d="M56.285 16.987c2.6 0 4.715-2.105 4.715-4.692V4.692C61 2.105 58.885 0 56.285 0H4.715C2.115 0 0 2.105 0 4.692v7.603c0 2.587 2.115 4.692 4.715 4.692h24.89v2.02H4.715C2.115 19.006 0 21.11 0 23.698V31.3c0 2.588 2.115 4.693 4.715 4.693h24.89v2.019H4.715c-2.6 0-4.715 2.105-4.715 4.692v7.603C0 52.895 2.115 55 4.715 55h51.57c2.6 0 4.715-2.105 4.715-4.692v-7.603c0-2.587-2.115-4.692-4.715-4.692h-24.89v-2.02h24.89c2.6 0 4.715-2.104 4.715-4.692V23.7c0-2.588-2.115-4.693-4.715-4.693h-24.89v-2.019h24.89zm2.924 25.718v7.603a2.92 2.92 0 0 1-2.924 2.91H4.715a2.92 2.92 0 0 1-2.924-2.91v-7.603a2.92 2.92 0 0 1 2.924-2.91h51.57a2.92 2.92 0 0 1 2.924 2.91zm0-19.006V31.3a2.92 2.92 0 0 1-2.924 2.91H4.715a2.92 2.92 0 0 1-2.924-2.91v-7.6a2.92 2.92 0 0 1 2.924-2.91h51.57a2.92 2.92 0 0 1 2.924 2.91zM1.791 12.295V4.692a2.92 2.92 0 0 1 2.924-2.91h51.57a2.92 2.92 0 0 1 2.924 2.91v7.603a2.92 2.92 0 0 1-2.924 2.91H4.715a2.92 2.92 0 0 1-2.924-2.91z" fill="#333" fill-rule="nonzero"/><ellipse fill="#14DF7D" cx="8.54" cy="47.316" rx="2.847" ry="2.831"/><ellipse fill="#14DF7D" cx="8.54" cy="26.287" rx="2.847" ry="2.831"/><ellipse fill="#14DF7D" cx="8.54" cy="10.11" rx="2.847" ry="2.831"/><path d="M8.535 4.752c-2.073 0-3.76 1.678-3.76 3.742 0 2.063 1.687 3.741 3.76 3.741 2.074 0 3.76-1.678 3.76-3.741 0-2.064-1.686-3.742-3.76-3.742zm0 5.702c-1.086 0-1.97-.88-1.97-1.96 0-1.081.884-1.96 1.97-1.96 1.086 0 1.97.879 1.97 1.96 0 1.08-.884 1.96-1.97 1.96zm8.595-4.752a2.802 2.802 0 0 0-2.805 2.792 2.802 2.802 0 0 0 2.805 2.791 2.802 2.802 0 0 0 2.805-2.791 2.802 2.802 0 0 0-2.805-2.792zm0 3.801c-.56 0-1.015-.453-1.015-1.01a1.015 1.015 0 0 1 2.03 0c0 .557-.455 1.01-1.015 1.01zM8.535 23.758c-2.073 0-3.76 1.679-3.76 3.742 0 2.063 1.687 3.742 3.76 3.742 2.074 0 3.76-1.679 3.76-3.742 0-2.063-1.686-3.742-3.76-3.742zm0 5.702c-1.086 0-1.97-.88-1.97-1.96s.884-1.96 1.97-1.96c1.086 0 1.97.88 1.97 1.96s-.884 1.96-1.97 1.96zm8.595-4.752a2.802 2.802 0 0 0-2.805 2.792 2.802 2.802 0 0 0 2.805 2.792 2.802 2.802 0 0 0 2.805-2.792 2.802 2.802 0 0 0-2.805-2.792zm0 3.802c-.56 0-1.015-.453-1.015-1.01 0-.557.456-1.01 1.015-1.01.56 0 1.015.453 1.015 1.01 0 .557-.455 1.01-1.015 1.01zm37.245 0H22.86a.893.893 0 0 0-.895.89c0 .493.4.892.895.892h31.515a.893.893 0 0 0 .895-.891c0-.493-.4-.891-.895-.891zm-32.41-2.91c0 .492.4.89.895.89h31.515a.893.893 0 0 0 .895-.89c0-.493-.4-.892-.895-.892H22.86a.893.893 0 0 0-.895.891zM55.27 10.394c0-.492-.4-.89-.895-.89H22.86a.893.893 0 0 0-.895.89c0 .492.4.891.895.891h31.515a.893.893 0 0 0 .895-.89zm-32.41-2.91h31.515a.893.893 0 0 0 .895-.891c0-.492-.4-.891-.895-.891H22.86a.893.893 0 0 0-.895.89c0 .493.4.892.895.892zM8.535 42.765c-2.073 0-3.76 1.678-3.76 3.741 0 2.064 1.687 3.742 3.76 3.742 2.074 0 3.76-1.678 3.76-3.742 0-2.063-1.686-3.741-3.76-3.741zm0 5.702c-1.086 0-1.97-.88-1.97-1.96 0-1.081.884-1.96 1.97-1.96 1.086 0 1.97.879 1.97 1.96 0 1.08-.884 1.96-1.97 1.96zm8.595-4.752a2.802 2.802 0 0 0-2.805 2.791 2.802 2.802 0 0 0 2.805 2.792 2.802 2.802 0 0 0 2.805-2.792 2.802 2.802 0 0 0-2.805-2.791zm0 3.801c-.56 0-1.015-.453-1.015-1.01a1.015 1.015 0 0 1 2.03 0c0 .557-.455 1.01-1.015 1.01zm37.245 0H22.86a.893.893 0 0 0-.895.891c0 .492.4.891.895.891h31.515a.893.893 0 0 0 .895-.89c0-.493-.4-.892-.895-.892zm-32.41-2.91c0 .492.4.89.895.89h31.515a.893.893 0 0 0 .895-.89c0-.492-.4-.891-.895-.891H22.86a.893.893 0 0 0-.895.89z" fill="#000" fill-rule="nonzero"/></g></svg>