<svg width="31" height="31" viewBox="0 0 31 31" xmlns="http://www.w3.org/2000/svg"><title>Group 39</title><g transform="translate(.333 .5)" fill="none" fill-rule="evenodd"><circle fill="#FB9200" cx="15" cy="15" r="15"/><g fill="#FFF"><path d="M15.379 7.169c-2.077 0-3.45.847-3.45 1.656v2.578h3.45v.385H8.913c-.823 0-1.685 1.348-1.685 3.388 0 2.042.862 3.39 1.685 3.39h2.625v-1.613c0-1.086.899-1.97 2.005-1.97h3.67c.89 0 1.614-.711 1.614-1.585V8.825c0-.81-1.371-1.656-3.448-1.656z"/><path d="M14.006 9.452c0 .27-.222.488-.497.488a.492.492 0 0 1-.496-.488c0-.27.223-.487.496-.487.275 0 .497.218.497.487zm7.837 2.336H19.22v1.61c0 1.086-.9 1.97-2.006 1.97h-3.67c-.89 0-1.613.712-1.613 1.585v4.576c0 .809 1.372 1.656 3.449 1.656s3.448-.847 3.448-1.656V18.95H15.38v-.385h6.464c.824 0 1.686-1.347 1.686-3.389 0-2.04-.862-3.388-1.686-3.388z"/><path d="M17.743 20.901c0 .27-.221.488-.496.488a.492.492 0 0 1-.496-.488c0-.269.222-.487.496-.487a.49.49 0 0 1 .496.487z"/></g></g></svg>