<svg width="31" height="30" viewBox="0 0 31 30" xmlns="http://www.w3.org/2000/svg" xmlns:xlink="http://www.w3.org/1999/xlink"><title>Group 39 Copy</title><defs><path id="a" d="M8.995 20H.002V0h17.985v20z"/></defs><g transform="translate(.667)" fill="none" fill-rule="evenodd"><circle fill="#FF5800" cx="15" cy="15" r="15"/><g transform="translate(6 5)"><mask id="b" fill="#fff"><use xlink:href="#a"/></mask><path d="M17.012 14.246c-.44.758-1.996.958-4.133.492.192-.846.33-1.705.406-2.567a20.331 20.331 0 0 0 1.945-1.75c.958.966 1.614 1.917 1.84 2.725.121.446.105.816-.058 1.1zm-8.02 4.92c-.961 0-1.957-1.154-2.651-3.128 1.05-.35 2.167-.846 3.3-1.459.724.3 1.468.554 2.225.763-.69 2.4-1.807 3.825-2.873 3.825zm-6.8-3.416c-.465-.104-.796-.3-.975-.583-.528-.834.209-2.554 1.995-4.446.447.383.937.762 1.456 1.129.104 1.325.322 2.554.627 3.633-1.23.338-2.309.446-3.104.267zM.914 6.433c-.124-.446-.103-.812.06-1.095.443-.771 2.041-.963 4.229-.471a19.544 19.544 0 0 0-.54 3.408c-.535.43-1.033.862-1.485 1.296C1.99 8.463 1.175 7.358.915 6.433zm8.078-5.6c1.02 0 2.079 1.305 2.773 3.509A19.7 19.7 0 0 0 9.23 5.383a21.256 21.256 0 0 0-2.986-1.112C6.935 2.112 7.985.833 8.993.833zm4.358 7.959c.456.345.883.696 1.272 1.046-.376.387-.799.783-1.259 1.179a22.491 22.491 0 0 0-.013-2.225zM10.193 5.85a18.498 18.498 0 0 1 1.799-.708c.159.641.284 1.291.372 1.95a24.88 24.88 0 0 0-2.17-1.242zM5.567 7.588c.088-.85.234-1.688.443-2.517.77.22 1.527.487 2.263.804a24.36 24.36 0 0 0-2.706 1.713zm-.954 3.162a18.84 18.84 0 0 1-.807-.646c.25-.241.519-.483.803-.725-.004.2-.008.396-.008.6 0 .263.004.517.012.771zm4.045 3.4a19.05 19.05 0 0 1-2.568 1.088 17.481 17.481 0 0 1-.519-2.78c.452.292.92.575 1.41.846a26.37 26.37 0 0 0 1.677.846zm3.71-1.287a16.726 16.726 0 0 1-.297 1.675 19.575 19.575 0 0 1-1.505-.488c.209-.125.414-.25.623-.383.41-.263.799-.534 1.18-.804zm-1.63.1c-.386.245-.77.475-1.151.691a23.883 23.883 0 0 1-4.104-2.258A24.96 24.96 0 0 1 5.437 10c0-.45.017-.883.042-1.308a24.303 24.303 0 0 1 3.756-2.383 23.438 23.438 0 0 1 3.238 1.854c.046.587.075 1.195.075 1.833 0 .604-.025 1.183-.067 1.742-.54.42-1.116.829-1.744 1.225zm4.203-8.38c.284-.004.569.025.85.084.468.104.794.3.978.587.485.763-.1 2.275-1.577 3.98a20.465 20.465 0 0 0-1.916-1.526 19.207 19.207 0 0 0-.48-2.8c.79-.212 1.518-.325 2.145-.325zm2.932 8.342c-.267-.95-1.004-2.033-2.083-3.117 1.711-1.966 2.422-3.837 1.682-5.004-.306-.479-.812-.8-1.502-.954-.9-.2-2.079-.1-3.41.254C11.77 1.604 10.479 0 8.994 0 7.512 0 6.228 1.587 5.437 4.067 2.907 3.492.927 3.742.25 4.92c-.276.483-.326 1.066-.138 1.733C.41 7.721 1.3 8.946 2.597 10.162c-2 2.125-2.878 4.196-2.083 5.45.305.48.807.8 1.502.955.334.07.677.104 1.02.1.74 0 1.594-.138 2.518-.392C6.354 18.558 7.587 20 8.997 20c1.556 0 2.899-1.754 3.677-4.458.811.175 1.568.275 2.238.275 1.368 0 2.38-.375 2.832-1.155.271-.487.318-1.07.13-1.737z" fill="#FFFFFE" mask="url(#b)"/></g><path d="M14.993 16.262a1.25 1.25 0 1 1 0-2.5 1.25 1.25 0 1 1 0 2.5zm0-3.333a2.088 2.088 0 0 0-2.092 2.083c0 1.15.937 2.084 2.092 2.084a2.088 2.088 0 0 0 2.091-2.084 2.09 2.09 0 0 0-2.091-2.083z" fill="#FEFFFB"/></g></svg>