<svg width="30" height="30" viewBox="0 0 30 30" xmlns="http://www.w3.org/2000/svg" xmlns:xlink="http://www.w3.org/1999/xlink"><title>Group 39 Copy</title><defs><path id="a" d="M7.888.015H.002v15.736h15.772V.015z"/></defs><g fill="none" fill-rule="evenodd"><circle fill="#E38706" cx="15" cy="15" r="15"/><g transform="translate(7.895 7.105)"><mask id="b" fill="#fff"><use xlink:href="#a"/></mask><path d="M4.098 4.267a1.296 1.296 0 0 1 1.83 0l.12.12 1.558-1.554-.122-.121a3.494 3.494 0 0 0-3.272-.93 2.11 2.11 0 0 0-4.192.341A2.11 2.11 0 0 0 1.663 4.18a3.488 3.488 0 0 0 .876 3.472l3.51 3.502L7.603 9.6l-3.51-3.502a1.294 1.294 0 0 1 .004-1.83zm11.656-2.144a2.11 2.11 0 1 0-4.2-.29 3.499 3.499 0 0 0-3.46.881l-3.51 3.503L6.14 7.77l3.51-3.5a1.291 1.291 0 1 1 1.828 1.825l-.12.12 1.555 1.556.122-.122a3.488 3.488 0 0 0 .887-3.436 2.109 2.109 0 0 0 1.832-2.09zm-1.793 9.434a3.485 3.485 0 0 0-.926-3.296L9.53 4.757 7.973 6.311l3.505 3.504a1.29 1.29 0 0 1 .002 1.826 1.296 1.296 0 0 1-1.83 0l-.12-.12-1.556 1.556.12.119a3.498 3.498 0 0 0 3.502.868 2.11 2.11 0 0 0 2.068 1.687 2.109 2.109 0 0 0 .297-4.194zM9.433 8.14l-3.505 3.503a1.298 1.298 0 0 1-1.833-.002 1.292 1.292 0 0 1 0-1.828l.12-.12L2.658 8.14l-.12.118a3.487 3.487 0 0 0-.915 3.334 2.109 2.109 0 0 0 .487 4.16 2.11 2.11 0 0 0 2.057-1.636 3.496 3.496 0 0 0 3.318-.918l3.504-3.503L9.433 8.14z" fill="#FFFCFC" mask="url(#b)"/></g></g></svg>