<svg width="31" height="30" viewBox="0 0 31 30" xmlns="http://www.w3.org/2000/svg"><title>Group 39 Copy 2</title><g transform="translate(.667)" fill="none" fill-rule="evenodd"><circle fill="#E38706" cx="15" cy="15" r="15"/><path d="M17.64 7.44l-1.56 6.16h1.44c.4 0 .56.32.32.72l-5.12 8.36c.72.2 1.48.32 2.28.32 4.4 0 8-3.6 8-8 0-3.48-2.24-6.48-5.36-7.56zm-3.72 8.92h-1.44c-.4 0-.56-.32-.32-.72l5.12-8.32C16.56 7.12 15.8 7 15 7c-4.4 0-8 3.6-8 8 0 3.48 2.24 6.48 5.36 7.56l1.56-6.2z" fill-rule="nonzero" fill="#F8FCFF"/></g></svg>