<svg width="31" height="30" viewBox="0 0 31 30" xmlns="http://www.w3.org/2000/svg"><title>Group 39 Copy</title><g transform="translate(.333)" fill="none" fill-rule="evenodd"><circle fill="#79C74F" cx="15" cy="15" r="15"/><path d="M21.423 8.585c-.068-.007-1.507-.116-1.507-.116l-1.11-1.13c-.11-.113-.324-.079-.408-.054l-.558.178c-.336-.986-.925-1.892-1.963-1.892l-.087.003c-.294-.4-.66-.574-.976-.574-2.415 0-3.57 3.098-3.932 4.672-.939.298-1.606.51-1.69.538-.526.168-.542.185-.61.69-.052.385-1.422 11.26-1.422 11.26l10.683 2.052 5.79-1.284-2.045-14.186a.183.183 0 0 0-.164-.156zM15.71 8.03v.107l-1.868.593c.359-1.422 1.033-2.11 1.623-2.369.147.382.245.93.245 1.669zm-.963-2.367a.54.54 0 0 1 .31.108c-.775.374-1.604 1.315-1.955 3.194l-1.476.47c.41-1.435 1.385-3.772 3.121-3.772zm.416 8.378s-.626-.342-1.392-.342c-1.124 0-1.18.724-1.18.906 0 .995 2.527 1.376 2.527 3.705 0 1.832-1.133 3.012-2.661 3.012-1.834 0-2.772-1.17-2.772-1.17l.491-1.664s.964.85 1.777.85c.53 0 .747-.43.747-.743 0-1.298-2.073-1.356-2.073-3.488 0-1.794 1.255-3.53 3.79-3.53.977 0 1.459.287 1.459.287l-.713 2.177zm1.18-6.105v-.2c0-.612-.083-1.106-.215-1.497.534.069.89.693 1.118 1.41l-.904.287z" fill-rule="nonzero" fill="#FFF"/></g></svg>