<svg width="30" height="30" viewBox="0 0 30 30" xmlns="http://www.w3.org/2000/svg" xmlns:xlink="http://www.w3.org/1999/xlink"><title>1499178876_code-programming-php-software-develop-command-language</title><defs><path id="a" d="M.004.058V17.7h13.52V.06z"/></defs><g fill="none" fill-rule="evenodd"><circle fill="#36447F" fill-rule="nonzero" cx="15" cy="15" r="15"/><g transform="translate(8 5)"><mask id="b" fill="#fff"><use xlink:href="#a"/></mask><path d="M9.294 2.74c.653-.711 1.094-1.698.973-2.682C9.327.093 8.19.62 7.514 1.33c-.604.63-1.133 1.635-.992 2.6 1.048.07 2.12-.482 2.772-1.19zm2.001 6.794c-.02-2.206 1.716-3.265 1.793-3.317-.976-1.497-2.495-1.702-3.037-1.725-1.294-.139-2.523.797-3.18.797-.654 0-1.666-.78-2.74-.758-1.41.023-2.71.86-3.435 2.185C-.77 9.382.32 13.332 1.748 15.495c.699 1.059 1.53 2.246 2.622 2.203 1.053-.043 1.45-.713 2.722-.713s1.628.713 2.74.692c1.133-.022 1.85-1.08 2.541-2.142.801-1.227 1.132-2.416 1.15-2.476-.024-.015-2.204-.888-2.228-3.525z" fill="#FFF" mask="url(#b)"/></g></g></svg>