<?xml version="1.0" encoding="utf-8"?>
<!-- Generator: Adobe Illustrator 19.2.0, SVG Export Plug-In . SVG Version: 6.00 Build 0)  -->
<svg version="1.1" xmlns="http://www.w3.org/2000/svg" xmlns:xlink="http://www.w3.org/1999/xlink" x="0px" y="0px"
	 viewBox="0 0 282.6 159.7" style="enable-background:new 0 0 282.6 159.7;" xml:space="preserve">
<style type="text/css">
	.st0{fill:none;stroke:#433F22;stroke-width:2;stroke-miterlimit:10;}
	.st1{fill:#CCECF6;}
	.st2{fill:#F7D4D1;}
	.st3{fill:#FAEB8B;}
	.st4{fill:none;stroke:#353535;stroke-width:2;stroke-miterlimit:10;}
	.st5{fill:none;stroke:#0C9FD2;stroke-width:2;stroke-miterlimit:10;}
	.st6{fill:#FFE36C;}
	.st7{opacity:0.3;fill:#009FD1;}
	.st8{opacity:0.3;}
	.st9{fill:#D63227;}
	.st10{fill:#EEEDED;}
	.st11{fill:#009FD1;}
	.st12{opacity:0.7;fill:#D63227;}
	.st13{fill:none;stroke:#FFFFFF;stroke-width:2;stroke-miterlimit:10;}
	.st14{opacity:0.3;fill:#D63227;}
	.st15{opacity:0.3;fill:#B2D235;}
	.st16{fill:#FFFFFF;stroke:#353535;stroke-width:2;stroke-miterlimit:10;}
</style>
<g id="Layer_1">
</g>
<g id="Layer_2">
	<polygon class="st14" points="194,22.3 117.7,42.8 117.7,37.3 194,16.9 	"/>
	<polygon class="st7" points="246.9,141.6 195,151.6 195,156.8 243.7,156.8 	"/>
	<path class="st7" d="M113.8,125.7H39V79.2c0-3.2,2.6-5.8,5.8-5.8h69V125.7z"/>
	<polygon class="st7" points="109.6,111.3 39.1,121.6 39.4,125.7 113.8,125.7 113.8,111.3 	"/>
	<g>
		<circle class="st15" cx="268.4" cy="118.4" r="14.2"/>
		<line class="st4" x1="266.7" y1="123.6" x2="266.7" y2="155.9"/>
		<circle class="st4" cx="266.7" cy="116.8" r="14.2"/>
	</g>
	<line class="st4" x1="15.8" y1="156.4" x2="274.6" y2="156.4"/>
	<path class="st4" d="M113.7,138.1H32l-0.3-63.5c0-3.4,2.7-6.1,6.1-6.1h76.6V34.6l76.7-20.7v142.3"/>
	<polyline class="st4" points="191.1,81.3 248.1,81.3 236.5,155.9 	"/>
	<rect x="139.5" y="114.3" class="st4" width="14.8" height="30.8"/>
	<rect x="154" y="114.3" class="st4" width="14.8" height="30.8"/>
	<g>
		
			<ellipse transform="matrix(0.5813 -0.8137 0.8137 0.5813 42.5825 208.0009)" class="st4" cx="223.4" cy="62.6" rx="4.1" ry="16.1"/>
		<line class="st4" x1="221.9" y1="65.7" x2="234.7" y2="45.9"/>
		<line class="st4" x1="223" y1="72" x2="224.4" y2="80.6"/>
		<line class="st4" x1="218.2" y1="70" x2="212.2" y2="80.6"/>
		<path class="st4" d="M210.3,53.3c0,0,0.2,9.2,7.7,15.7c7.5,6.6,17.7,3.5,17.7,3.5"/>
	</g>
	<line class="st4" x1="114.4" y1="156.6" x2="114.4" y2="101.7"/>
	<line class="st4" x1="154" y1="4.3" x2="154" y2="24.2"/>
	<line class="st4" x1="244.6" y1="99.9" x2="233.9" y2="99.9"/>
	<line class="st4" x1="241.9" y1="119" x2="231.2" y2="119"/>
	<line class="st4" x1="239.2" y1="137" x2="228.5" y2="137"/>
	<line class="st4" x1="114.2" y1="87.8" x2="114.2" y2="95.6"/>
	<polygon class="st4" points="101,150.9 75.4,150.9 79,138.4 97.3,138.4 	"/>
	<line class="st4" x1="32.7" y1="125.8" x2="114.6" y2="125.8"/>
	<rect x="63.3" y="151" class="st16" width="118.2" height="5.4"/>
	<rect x="130.6" y="145.5" class="st16" width="47.4" height="5.4"/>
	<line class="st4" x1="124.4" y1="53.1" x2="184.9" y2="53.1"/>
	<line class="st4" x1="124.4" y1="72.4" x2="184.9" y2="72.4"/>
	<line class="st4" x1="124.4" y1="91.6" x2="184.9" y2="91.6"/>
	<circle class="st11" cx="87.8" cy="132.3" r="3.1"/>
	<g>
		<path class="st6" d="M21.3,66.4c2-4.1,6.1-6.9,10.6-7.6c5.4-0.8,9.4,1,14,3c0.8-2.2,1.3-4.5,1.3-7c0-10.9-8.8-19.7-19.7-19.7
			c-10.9,0-19.7,8.8-19.7,19.7c0,4.3,1.4,8.3,3.8,11.6c3.7-0.4,6.2-0.6,9.7,0.3C21.2,66.6,21.3,66.5,21.3,66.4z"/>
	</g>
	<circle class="st9" cx="154" cy="3.3" r="1.7"/>
	<path class="st4" d="M2.3,69.1c0,0,10-6.9,20.7-1.6"/>
	<path class="st4" d="M46.6,61.8c0,0-16.9-8.7-25.3,4.6"/>
</g>
</svg>
