<svg width="60" height="46" viewBox="0 0 60 46" xmlns="http://www.w3.org/2000/svg" xmlns:xlink="http://www.w3.org/1999/xlink"><title>laptop (1)</title><defs><path id="a" d="M0 45.993V.103h58.942v45.89z"/></defs><g fill="none" fill-rule="evenodd"><path fill="#0A0A08" d="M9.262 8.558h11.052V6.143H9.262zm13.508 0h6.14V6.143h-6.14zM9.262 26.675h11.052V24.26H9.262zm13.508 0h6.14V24.26h-6.14zM9.262 20.636h7.368v-2.415H9.262zm27.016 0h3.684v-2.415h-3.684zm-17.192 0h14.736v-2.415H19.086zm6.14-6.039h4.912v-2.415h-4.912zm-15.964 0H22.77v-2.415H9.262zm23.332 0h18.42v-2.415h-18.42zM9.262 32.714h18.42V30.3H9.262zm36.585-8.204l3.43 3.373-3.43 3.373 1.737 1.708 5.166-5.08-5.166-5.082-1.737 1.708m-9.824-1.708l-5.166 5.081 5.166 5.081 1.737-1.708-3.43-3.373 3.43-3.373-1.737-1.708"/><g transform="translate(.667)"><mask id="b" fill="#fff"><use xlink:href="#a"/></mask><path fill="#0A0A08" mask="url(#b)" d="M37.54 33.484l4.908-12.079 2.28.896-4.907 12.08-2.28-.897"/><path fill="#14DF7D" mask="url(#b)" d="M1.137 37.617v3.614l3.04 3.87h50.982l2.875-3.876V37.73z"/><path d="M56.487 40.803L54.6 43.584H4.341l-1.885-2.78v-2.05h54.03v2.05zM4.912 36.338H54.03V2.519H4.91v33.819zM56.487.104H2.456v36.234H0v5.196L3.027 46h52.889l3.026-4.466v-5.196h-2.455V.104z" fill="#0A0A08" mask="url(#b)"/></g><path fill="#0A0A08" d="M33.822 42.377h2.456V39.96h-2.456zm-4.912 0h2.456V39.96H28.91zm-4.912 0h2.456V39.96h-2.456z"/></g></svg>