<svg width="31" height="30" viewBox="0 0 31 30" xmlns="http://www.w3.org/2000/svg"><title>Group 39</title><g transform="translate(.667)" fill="none" fill-rule="evenodd"><circle fill="#3765AF" cx="15" cy="15" r="15"/><g fill-rule="nonzero"><path fill="#B4B4B4" d="M14.733 7.213L7.045 9.988l1.218 10.33 6.477 3.652 6.515-3.705 1.218-10.329z"/><path fill="#FFF" d="M21.701 10.532L14.714 8.09V23.1l5.858-3.326zm-13.789.046l1.04 9.242 5.762 3.28V8.09z"/><path d="M16.641 16.083l-1.92.923h-2.03l-.95 2.448-1.774.032L14.721 8.64l1.92 7.443zm-.185-.465l-1.723-3.502-1.416 3.443h1.404l1.735.059z" fill="#3765AF"/><path fill="#3765AF" d="M14.714 8.634l.013 3.482 1.608 3.443h-1.614l-.007 1.44 2.234.007 1.046 2.474 1.697.033z"/></g></g></svg>