<svg width="31" height="30" viewBox="0 0 31 30" xmlns="http://www.w3.org/2000/svg"><title>Group 39 Copy</title><g transform="translate(.333)" fill="none" fill-rule="evenodd"><circle fill="#414141" cx="15" cy="15" r="15"/><g fill-rule="nonzero" fill="#FFF"><path d="M15.362 22.686a.44.44 0 0 1-.219-.058l-.695-.408c-.104-.057-.053-.077-.019-.09.139-.047.167-.058.314-.141.016-.009.036-.005.052.004l.534.314c.02.01.047.01.065 0l2.083-1.19a.065.065 0 0 0 .031-.057v-2.38a.066.066 0 0 0-.032-.057l-2.082-1.19a.066.066 0 0 0-.064 0l-2.081 1.19a.066.066 0 0 0-.033.057v2.381c0 .023.013.045.033.055l.57.327c.31.153.5-.027.5-.209v-2.351a.06.06 0 0 1 .06-.06h.264a.06.06 0 0 1 .06.06v2.351c0 .41-.225.644-.616.644-.12 0-.216 0-.48-.129l-.546-.311a.435.435 0 0 1-.219-.377V18.68c0-.155.084-.3.219-.376l2.082-1.193a.46.46 0 0 1 .438 0l2.083 1.193a.435.435 0 0 1 .218.376v2.381a.436.436 0 0 1-.218.377l-2.083 1.191a.44.44 0 0 1-.22.058z"/><path d="M16.005 21.045c-.911 0-1.102-.414-1.102-.762a.06.06 0 0 1 .06-.06h.27a.06.06 0 0 1 .06.051c.04.272.161.409.712.409.439 0 .626-.098.626-.329 0-.133-.053-.232-.735-.298-.57-.056-.922-.18-.922-.632 0-.417.354-.665.948-.665.667 0 .997.23 1.039.722a.06.06 0 0 1-.06.065h-.27a.06.06 0 0 1-.059-.047c-.065-.286-.223-.377-.65-.377-.48 0-.535.165-.535.29 0 .15.066.193.712.278.64.084.944.202.944.648 0 .45-.378.707-1.038.707z"/></g><path d="M19.008 18.548a.4.4 0 0 1-.803 0 .4.4 0 0 1 .402-.398.4.4 0 0 1 .401.398zm-.738-.001c0 .185.151.334.336.334a.338.338 0 0 0 .337-.334.335.335 0 0 0-.337-.333.333.333 0 0 0-.336.333zm.186-.222h.155c.053 0 .157 0 .157.117 0 .083-.053.1-.085.11.062.004.066.044.075.1.004.037.01.098.023.119h-.096l-.017-.141c-.006-.026-.014-.038-.046-.038h-.079v.179h-.087v-.446zm.085.195h.07c.057 0 .068-.04.068-.063 0-.06-.042-.06-.066-.06h-.072v.123zm-9.628-5.152a.263.263 0 0 0-.134-.23L6.571 11.88a.262.262 0 0 0-.121-.035h-.023a.265.265 0 0 0-.122.035l-2.208 1.259a.265.265 0 0 0-.134.23l.005 3.39a.13.13 0 0 0 .067.114.13.13 0 0 0 .132 0l1.312-.745a.266.266 0 0 0 .134-.229v-1.584c0-.094.05-.182.133-.229l.559-.319a.267.267 0 0 1 .266 0l.559.32a.263.263 0 0 1 .133.228v1.584c0 .094.051.181.134.23l1.312.744a.13.13 0 0 0 .133 0 .132.132 0 0 0 .066-.114l.005-3.39zm10.624-4.66a.135.135 0 0 0-.133.001.132.132 0 0 0-.066.114v3.358a.093.093 0 0 1-.046.08.094.094 0 0 1-.094 0l-.553-.316a.269.269 0 0 0-.266 0l-2.209 1.263a.264.264 0 0 0-.133.23v2.526c0 .094.05.182.133.229l2.209 1.264a.269.269 0 0 0 .267 0l2.209-1.264a.264.264 0 0 0 .133-.229V9.665a.264.264 0 0 0-.137-.23l-1.314-.727zm-.205 6.426a.066.066 0 0 1-.033.057l-.759.433a.067.067 0 0 1-.066 0l-.759-.433a.066.066 0 0 1-.033-.057v-.868c0-.024.012-.045.033-.057l.758-.434a.067.067 0 0 1 .067 0l.759.434c.02.012.033.033.033.057v.868z" fill="#F6FFF5" fill-rule="nonzero"/><g fill-rule="nonzero" fill="#FFF"><path d="M26.892 14.243a.264.264 0 0 0 .133-.228v-.613a.264.264 0 0 0-.133-.228l-2.195-1.263a.269.269 0 0 0-.267 0l-2.208 1.263a.264.264 0 0 0-.133.229v2.526c0 .095.051.183.134.23l2.195 1.239a.27.27 0 0 0 .261.001l1.328-.73a.132.132 0 0 0 .001-.231l-2.222-1.264a.132.132 0 0 1-.067-.115v-.791c0-.047.025-.091.067-.115l.691-.395a.134.134 0 0 1 .133 0l.692.395a.132.132 0 0 1 .067.115v.623c0 .047.026.09.067.114a.134.134 0 0 0 .134 0l1.322-.762z"/><path d="M24.531 14.125a.051.051 0 0 1 .051 0l.424.242a.05.05 0 0 1 .026.044v.485a.05.05 0 0 1-.026.044l-.424.242a.051.051 0 0 1-.05 0l-.424-.242a.05.05 0 0 1-.026-.044v-.485a.05.05 0 0 1 .026-.044l.423-.242z"/></g><path d="M12.607 11.924a.267.267 0 0 0-.265 0l-2.196 1.256a.262.262 0 0 0-.133.228v2.514c0 .094.05.18.133.227l2.196 1.257a.268.268 0 0 0 .266 0l2.196-1.257a.263.263 0 0 0 .132-.227v-2.514a.261.261 0 0 0-.133-.228l-2.196-1.256z" fill="#FFFAFA" fill-rule="nonzero"/></g></svg>