<svg width="31" height="30" viewBox="0 0 31 30" xmlns="http://www.w3.org/2000/svg"><title>1499178876_code-programming-php-software-develop-command-language</title><g transform="translate(.667)" fill="none"><circle fill="#78B53B" cx="15" cy="15" r="15"/><g fill="#FFF"><path d="M8.02 9.765c-1.416 2.11-1.24 4.855-.158 7.098.026.054.052.107.08.16.016.033.032.067.05.1l.031.059c.019.035.037.07.057.104.033.062.068.123.103.184l.059.1c.039.066.079.13.12.195l.05.081a9.184 9.184 0 0 0 .18.267l.029.04c.051.074.104.147.158.22l.06.078c.047.062.096.124.145.186l.056.069a9.7 9.7 0 0 0 .204.241l.004.005.008.008a10.284 10.284 0 0 0 .439.464l.067.067c.075.073.15.144.227.214l.003.003.04.034c.067.061.136.121.206.18l.085.071a9.027 9.027 0 0 0 .526.406l.019.014c.061.044.124.087.187.129l.08.055c.097.063.194.126.293.186l.081.048a9.637 9.637 0 0 0 .341.192l.157.085.037.018.064.032c.082.041.165.081.25.12l.052.024c.096.044.193.086.29.126l.071.029c.09.036.182.071.274.105l.035.012c.1.037.203.07.306.104l.073.023c.105.032.208.071.316.092 6.849 1.295 8.838-4.267 8.838-4.267-1.67 2.257-4.636 2.852-7.446 2.19-.107-.026-.21-.06-.314-.092a7.229 7.229 0 0 1-.38-.126l-.042-.016a9.012 9.012 0 0 1-.266-.102l-.075-.03a8.155 8.155 0 0 1-.287-.125l-.058-.026a10.952 10.952 0 0 1-.242-.117l-.07-.035a6.732 6.732 0 0 1-.188-.099c-.041-.022-.084-.044-.125-.068a7.382 7.382 0 0 1-.225-.13l-.076-.044c-.098-.06-.196-.123-.292-.186l-.08-.055a7.436 7.436 0 0 1-.208-.143l-.067-.05a10.794 10.794 0 0 1-.197-.147c-.03-.022-.058-.046-.087-.068a8.638 8.638 0 0 1-.478-.403l-.025-.022a10.827 10.827 0 0 1-.232-.219l-.066-.065a6.828 6.828 0 0 1-.167-.17l-.066-.068a9.488 9.488 0 0 1-.205-.225l-.01-.011a8.48 8.48 0 0 1-.412-.505 10.876 10.876 0 0 1-.228-.31c-1.56-2.206-2.12-5.249-.874-7.748"/><path d="M12.416 7.987c-1.024 1.528-.969 3.573-.17 5.19.134.27.285.533.453.783.154.228.324.5.527.683.074.084.151.166.23.247l.06.062c.077.077.155.153.236.226l.01.009.001.002c.09.08.181.159.275.235a6.703 6.703 0 0 0 .349.268l.008.007.13.089c.022.014.042.03.063.042.07.047.14.092.212.135l.03.018.188.11.067.035c.044.024.087.048.132.071a6.206 6.206 0 0 0 .294.142l.06.025c.075.033.15.065.225.095l.096.037c.069.026.138.05.207.074l.093.031c.099.032.196.072.299.09 5.287.908 6.508-3.313 6.508-3.313-1.1 1.643-3.231 2.427-5.506 1.815a6.256 6.256 0 0 1-.299-.09l-.09-.03a6.13 6.13 0 0 1-.53-.206l-.06-.026a6.465 6.465 0 0 1-.276-.133l-.139-.073-.08-.043a6.526 6.526 0 0 1-.175-.102l-.041-.025a6.752 6.752 0 0 1-.212-.134l-.064-.044a7.005 7.005 0 0 1-.423-.311l-.065-.053c-.995-.814-1.784-1.928-2.16-3.19-.392-1.31-.308-2.78.374-3.973"/><path d="M16.113 6.658c-.604.921-.663 2.065-.244 3.083a4.251 4.251 0 0 0 2.404 2.329c.043.017.087.032.131.047l.058.019c.062.02.124.044.188.056 2.92.585 3.712-1.553 3.923-1.868-.694 1.036-1.86 1.284-3.29.925a4.14 4.14 0 0 1-1.478-.744c-1.28-1.007-2.075-2.928-1.24-4.493"/></g></g></svg>