<svg width="30" height="31" viewBox="0 0 30 31" xmlns="http://www.w3.org/2000/svg" xmlns:xlink="http://www.w3.org/1999/xlink"><title>Group 39</title><defs><path id="a" d="M9.148 11.274H.015V.01h9.133v11.263z"/><path id="c" d="M.002.035h11.5v11.691H.002z"/></defs><g transform="translate(0 .5)" fill="none" fill-rule="evenodd"><circle fill="#FB9200" cx="15" cy="15" r="15"/><g transform="translate(10.42 11.577)"><mask id="b" fill="#fff"><use xlink:href="#a"/></mask><path d="M8.808.01H.355a.342.342 0 0 0-.34.344V7.51c0 .19.152.343.34.343h1.507v2.411c0 .56.45 1.013 1.004 1.013s1.003-.453 1.003-1.013v-2.41h1.404v2.41c0 .56.449 1.013 1.003 1.013.555 0 1.004-.453 1.004-1.013v-2.41h1.528c.188 0 .34-.155.34-.344V.354a.342.342 0 0 0-.34-.343" fill="#FFFFFE" mask="url(#b)"/></g><path d="M9.004 11.586c-.555 0-1.004.453-1.004 1.013v4.114c0 .56.45 1.013 1.004 1.013s1.003-.453 1.003-1.013V12.6c0-.56-.45-1.013-1.003-1.013" fill="#FFF"/><g transform="translate(10.5 6)"><mask id="d" fill="#fff"><use xlink:href="#c"/></mask><path d="M10.498 5.586c-.554 0-1.003.453-1.003 1.013v4.114c0 .56.45 1.013 1.003 1.013.555 0 1.004-.453 1.004-1.013V6.6c0-.56-.45-1.013-1.004-1.013M2.401 2.772c.213 0 .386.174.386.389 0 .215-.173.39-.386.39a.388.388 0 0 1-.386-.39c0-.215.173-.39.386-.39zm4.565.389c0 .215-.173.39-.386.39a.388.388 0 0 1-.385-.39c0-.215.172-.39.385-.39.213 0 .386.175.386.39zM.343 5.086h8.296a.343.343 0 0 0 .333-.415 4.625 4.625 0 0 0-2.237-3.075l.71-1.292a.182.182 0 0 0-.07-.246.178.178 0 0 0-.245.07L6.416 1.43a4.526 4.526 0 0 0-1.925-.427c-.688 0-1.34.153-1.925.427L1.85.128a.178.178 0 0 0-.244-.07.182.182 0 0 0-.07.246l.71 1.292A4.625 4.625 0 0 0 .01 4.67a.343.343 0 0 0 .333.415z" fill="#FFF" mask="url(#d)"/></g></g></svg>