<svg width="62" height="62" viewBox="0 0 62 62" xmlns="http://www.w3.org/2000/svg" xmlns:xlink="http://www.w3.org/1999/xlink"><title>browser</title><defs><path id="a" d="M.007 62H62V0H.007z"/></defs><g fill="none" fill-rule="evenodd"><path d="M1.347 15.27V6.187C1.6 2.849 3.522 1.145 7.115 1.074c3.592-.071 17.388-.071 41.388 0 3.705.566 5.533 2.484 5.485 5.754a268.87 268.87 0 0 0 0 8.858l-52.64-.416z" fill="#14DF7D"/><path d="M7.913 7.477a.735.735 0 1 1 .002-1.47.735.735 0 0 1-.002 1.47zm0-3.418a2.687 2.687 0 0 0-2.684 2.684 2.687 2.687 0 0 0 2.684 2.684 2.687 2.687 0 0 0 2.684-2.684A2.687 2.687 0 0 0 7.913 4.06zm5.897 3.418a.735.735 0 1 1 .001-1.47.735.735 0 0 1-.001 1.47zm0-3.418a2.687 2.687 0 0 0-2.685 2.684 2.687 2.687 0 0 0 2.685 2.684 2.687 2.687 0 0 0 2.684-2.684A2.687 2.687 0 0 0 13.81 4.06zm5.896 3.418a.735.735 0 1 1 .002-1.47.735.735 0 0 1-.002 1.47zm0-3.418a2.687 2.687 0 0 0-2.684 2.684 2.687 2.687 0 0 0 2.684 2.684 2.687 2.687 0 0 0 2.684-2.684 2.687 2.687 0 0 0-2.684-2.684zm29.356 2.684a.975.975 0 0 0-.975-.975h-15.04a.975.975 0 0 0 0 1.95h15.04a.975.975 0 0 0 .975-.975M8.242 36.09l1.17-1.169a.975.975 0 0 0 .16-1.167 7.805 7.805 0 0 1-.713-1.718.975.975 0 0 0-.938-.712H6.267v-2.811h1.654c.437 0 .82-.291.939-.712.168-.6.407-1.177.711-1.718a.975.975 0 0 0-.16-1.168l-1.17-1.169 1.989-1.988 1.169 1.17a.975.975 0 0 0 1.167.16 7.808 7.808 0 0 1 1.718-.712.975.975 0 0 0 .712-.939v-1.653h2.811v1.653c0 .437.291.821.712.94a7.797 7.797 0 0 1 1.718.71.975.975 0 0 0 1.168-.16l1.17-1.169 1.987 1.988-1.17 1.17a.975.975 0 0 0-.16 1.167c.305.54.544 1.119.712 1.718.118.42.502.712.94.712h1.652v2.81h-1.654a.975.975 0 0 0-.938.713 7.78 7.78 0 0 1-.712 1.717.975.975 0 0 0 .16 1.168l1.17 1.17-1.988 1.987-1.17-1.17a.976.976 0 0 0-1.168-.16 7.765 7.765 0 0 1-1.717.712.975.975 0 0 0-.712.94v1.653h-2.81v-1.654a.975.975 0 0 0-.713-.939 7.792 7.792 0 0 1-1.717-.711.975.975 0 0 0-1.168.16l-1.17 1.17-1.987-1.988zm4.034 2.7c.252.117.509.223.77.319v1.919c0 .538.437.975.975.975h4.761a.975.975 0 0 0 .975-.975v-1.92c.261-.095.519-.201.77-.318l1.358 1.357c.38.38.998.38 1.379 0l3.366-3.367a.975.975 0 0 0 0-1.379l-1.357-1.357a9.73 9.73 0 0 0 .32-.77h1.918a.975.975 0 0 0 .975-.975v-4.761a.975.975 0 0 0-.975-.975h-1.919a9.757 9.757 0 0 0-.319-.77l1.357-1.358a.975.975 0 0 0 0-1.379l-3.367-3.366a.975.975 0 0 0-1.378 0l-1.358 1.357a9.826 9.826 0 0 0-.77-.32V18.81a.975.975 0 0 0-.975-.975h-4.76a.975.975 0 0 0-.976.975v1.919a9.771 9.771 0 0 0-.77.319l-1.357-1.357a.975.975 0 0 0-1.379 0l-3.367 3.366a.975.975 0 0 0 0 1.38l1.357 1.356a9.776 9.776 0 0 0-.319.77H5.292a.975.975 0 0 0-.975.976v4.76c0 .54.437.976.975.976h1.92c.095.261.201.518.318.77l-1.357 1.357a.975.975 0 0 0 0 1.38l3.367 3.366c.38.38.998.38 1.379 0l1.357-1.357z" fill="#0A0A08"/><mask id="b" fill="#fff"><use xlink:href="#a"/></mask><path d="M16.402 26.056a3.866 3.866 0 0 1 3.862 3.862 3.866 3.866 0 0 1-3.862 3.862 3.866 3.866 0 0 1-3.862-3.862 3.866 3.866 0 0 1 3.862-3.862zm0 9.674a5.819 5.819 0 0 0 5.812-5.812 5.819 5.819 0 0 0-5.812-5.812 5.819 5.819 0 0 0-5.812 5.812 5.819 5.819 0 0 0 5.812 5.812z" fill="#0A0A08" mask="url(#b)"/><path d="M60.05 46.755h-3.03a.975.975 0 0 0-.939.713c-.266.95-.646 1.867-1.13 2.728a.975.975 0 0 0 .16 1.167l2.142 2.142-3.749 3.749-2.142-2.142a.975.975 0 0 0-1.168-.16c-.859.484-1.777.864-2.728 1.13a.975.975 0 0 0-.712.94v3.028h-5.302v-3.03a.975.975 0 0 0-.712-.939 12.379 12.379 0 0 1-2.728-1.13.975.975 0 0 0-1.168.16l-2.142 2.142-3.749-3.749 2.142-2.142a.975.975 0 0 0 .16-1.168 12.372 12.372 0 0 1-1.13-2.728.975.975 0 0 0-.94-.712H28.16v-5.302h3.028c.437 0 .82-.29.939-.712a12.492 12.492 0 0 1 1.13-2.728.972.972 0 0 0-.16-1.168l-2.141-2.142 3.748-3.748 2.142 2.141c.31.31.786.375 1.167.16.861-.484 1.78-.864 2.73-1.13a.975.975 0 0 0 .711-.94V28.16h5.302v3.028c0 .437.29.821.712.94a12.3 12.3 0 0 1 2.728 1.13.975.975 0 0 0 1.168-.16l2.142-2.142 3.749 3.748-2.142 2.142a.975.975 0 0 0-.16 1.168c.484.86.864 1.778 1.13 2.729.119.42.502.712.94.712h3.028v5.301zM1.95 14.431v-1.414h44.51a.975.975 0 1 0 0-1.95H1.95V6.844A4.899 4.899 0 0 1 6.843 1.95h41.08a4.899 4.899 0 0 1 4.894 4.894v4.223h-3.235a.975.975 0 1 0 0 1.95h3.235v1.414H1.95zm59.075 25.072h-3.284A14.38 14.38 0 0 0 57 37.715l2.322-2.322a.975.975 0 0 0 0-1.38l-4.555-4.554V6.844A6.851 6.851 0 0 0 47.924 0H6.844A6.851 6.851 0 0 0 0 6.844v41.08a6.851 6.851 0 0 0 6.843 6.843h1.333a.975.975 0 1 0 0-1.95H6.843a4.899 4.899 0 0 1-4.893-4.893V16.38h50.867v12.504l-.001.001-2.323 2.323a14.31 14.31 0 0 0-1.788-.741v-3.285a.975.975 0 0 0-.975-.975h-7.252a.975.975 0 0 0-.975.975v3.285a14.44 14.44 0 0 0-1.788.74l-2.322-2.322a.975.975 0 0 0-1.38 0l-5.127 5.128a.975.975 0 0 0 0 1.379l2.323 2.322a14.325 14.325 0 0 0-.741 1.788h-3.285a.975.975 0 0 0-.975.975v7.252c0 .539.437.975.975.975h3.285c.206.612.454 1.21.74 1.788l-2.322 2.323-.001.001H11.232a.975.975 0 1 0 0 1.95h18.227l4.555 4.555a.975.975 0 0 0 1.379 0L37.715 57a14.35 14.35 0 0 0 1.788.74v3.285c0 .539.437.975.975.975h7.252a.975.975 0 0 0 .975-.975v-3.284c.612-.207 1.21-.454 1.788-.741l2.323 2.322a.975.975 0 0 0 1.379 0l5.127-5.127a.975.975 0 0 0 0-1.38L57 50.494c.287-.578.534-1.176.74-1.788h3.285A.975.975 0 0 0 62 47.73v-7.25a.975.975 0 0 0-.975-.976z" fill="#0A0A08" mask="url(#b)"/><path d="M44.104 35.762c-4.6 0-8.342 3.742-8.342 8.342 0 4.6 3.742 8.343 8.342 8.343a8.357 8.357 0 0 0 3.953-.995.975.975 0 1 0-.926-1.716 6.398 6.398 0 0 1-3.027.76 6.4 6.4 0 0 1-6.392-6.392 6.4 6.4 0 0 1 6.392-6.392 6.4 6.4 0 0 1 6.392 6.392c0 1.445-.47 2.808-1.359 3.941a.975.975 0 0 0 1.534 1.204 8.26 8.26 0 0 0 1.775-5.145c0-4.6-3.742-8.342-8.342-8.342" fill="#0A0A08"/></g></svg>