<svg width="30" height="30" viewBox="0 0 30 30" xmlns="http://www.w3.org/2000/svg"><title>Group 39 Copy</title><g fill="none" fill-rule="evenodd"><circle fill="#489A3C" cx="15" cy="15" r="15"/><g fill-rule="nonzero" fill="#FAFDFF"><path d="M20.069 9.645l.095.376.095.328.142.75.048.33.094.374.19 1.502v.375l.048.375v.375l.047.376v1.5l-.047.376v.375l-.048.375v.329l-.19 1.501-.094.375-.048.375-.047.329-.19.75-.095.329-.332.093-.76.188-.378.047-.38.094-.332.047-.427.047-.332.046v-1.5l.427-.047.237-.047.19-.047.854-.188.142-.563.19-1.125.095-.61.047-.563.048-.61v-2.299l-.048-.281v-.328l-.047-.282v-.281l-.332-1.97-.095-.282-.427-.14-.237-.048-.38-.093-.474-.094h-.19V9.083l.332.047.427.047.332.046.38.094.379.047.759.188zm-6.167 12.337l-1.138-.14-.38-.094-.332-.047-1.138-.281-.048-.329-.094-.375-.143-.704-.095-.375-.237-1.876v-.329l-.047-.375v-.375l-.048-.375v-1.501l.048-.376v-.375l.047-.375v-.375l.095-.751.047-.375.095-.75.095-.33.048-.375.095-.375.094-.328.048-.376 1.138-.28.332-.048.38-.094 1.138-.14v1.5l-.427.048-.237.047-.19.046-.427.094-.426.141-.143.563-.284 1.689-.048.563-.047.61v.562l-.048.61.048.563v.891l.047.282v.281l.095.563.047.329.048.234.047.328.143.845.095.281.426.094.19.047.238.047.19.047.473.093h.19z"/><path d="M16.18 12.32l-.19.61-.19.562-.19.61-.19.563-.19-.563-.237-.61-.142-.563-.19-.563h-.332l-.664.094-.285.094.095.844.095.423.095.234v.188l.142.422.095.422.143.422.142.375.19.47.142.375.19.375.19.422.379.751.237.375.237.375h.332l.38-.046h.19l.19-.047.331-.047-.237-.563-.284-.563-.285-.61-.237-.61.237-.469.237-.516.19-.469.142-.235.095-.281.142-.516.19-.469.095-.516.142-.516-.19-.047-.142-.047-.38-.047-.331-.047z"/></g></g></svg>