<svg width="30" height="31" viewBox="0 0 30 31" xmlns="http://www.w3.org/2000/svg" xmlns:xlink="http://www.w3.org/1999/xlink"><title>Group 39</title><defs><path id="a" d="M7.895.002H.043v18.155h15.704V.002z"/></defs><g transform="translate(0 .5)" fill="none" fill-rule="evenodd"><circle fill="#36607D" cx="15" cy="15" r="15"/><g transform="translate(7.105 5.526)"><mask id="b" fill="#fff"><use xlink:href="#a"/></mask><path d="M11.795 3.379c-.92-.58-1.79-.806-2.656-1.382C8.601 1.627 7.855.754 7.23.002c-.272 1.192-.485 1.697-.9 2.05-.883.696-1.438.907-2.203 1.327C3.484 3.71 0 5.809 0 10.324c0 4.511 3.765 7.833 7.942 7.833 4.18 0 7.805-3.061 7.805-7.694 0-4.636-3.397-6.736-3.952-7.084zm3.324 8.207c0 .543-.174 1.521-.591 2.134-.415.613-.673.84-1.16.806-.626-.054-1.876-2.012-2.673-2.049-1.003-.034-3.19 2.12-4.906 2.12-1.043 0-1.354-.16-1.699-.386-.52-.369-.782-.928-.765-1.697.02-1.367 1.284-2.641 2.88-2.658 2.03-.017 3.434 2.029 4.456 2.011.867-.016 2.535-1.733 3.349-1.733.866 0 1.11.907 1.11 1.452z" fill="#FFF6F6" mask="url(#b)"/></g></g></svg>