<svg xmlns="http://www.w3.org/2000/svg" viewBox="0 0 519.33 330.9"><defs><style>.cls-1{fill:#ccebf5;}.cls-2,.cls-5,.cls-7{fill:none;stroke-miterlimit:10;}.cls-2{stroke:#444023;}.cls-2,.cls-5{stroke-width:2px;}.cls-3{fill:#f6e484;}.cls-4{fill:#f6d4d1;}.cls-5{stroke:#089ed0;}.cls-6{fill:#f4f4f4;}.cls-7{stroke:#353635;stroke-width:3px;}</style></defs><title>try-before-you-buy-svg</title><g id="Layer_2" data-name="Layer 2"><g id="Layer_1-2" data-name="Layer 1"><path class="cls-1" d="M111.49,275.8c1.93,3.81,3.27,8.43,4.93,12.29H394.7l2.25-5.66h16l-1.13-6.63Z"/><polyline class="cls-2" points="236.07 293.87 392.45 293.87 396.95 282.44 412.94 282.44 412.94 275.64 399.62 275.64 109.25 275.64 88.16 275.64 88.16 282.44 111.93 282.44 116.42 293.87 180.72 293.87"/><ellipse class="cls-3" cx="306.52" cy="18.66" rx="9.48" ry="17.03" transform="translate(177.09 297.14) rotate(-68.56)"/><path class="cls-2" d="M298.67,25.76c11,4.34,22,2.87,24.37-3.28s-4.58-14.65-15.63-19S285.45.62,283,6.77c-1.34,3.42.22,7.57,3.78,11.32"/><line class="cls-2" x1="346.95" y1="207.13" x2="346.95" y2="275.97"/><line class="cls-2" x1="155.14" y1="233.95" x2="215.08" y2="233.95"/><line class="cls-2" x1="155.14" y1="246.11" x2="239.27" y2="246.11"/><path class="cls-4" d="M186.89,267.4H160.28a5.13,5.13,0,0,1-5.13-5.13h0a5.13,5.13,0,0,1,5.13-5.13h26.61a5.13,5.13,0,0,1,5.13,5.13h0A5.13,5.13,0,0,1,186.89,267.4Z"/><path class="cls-2" d="M186.89,267.4H160.28a5.13,5.13,0,0,1-5.13-5.13h0a5.13,5.13,0,0,1,5.13-5.13h26.61a5.13,5.13,0,0,1,5.13,5.13h0A5.13,5.13,0,0,1,186.89,267.4Z"/><line class="cls-2" x1="28.12" y1="237.65" x2="39.79" y2="237.65"/><line class="cls-2" x1="44.32" y1="237.65" x2="55.99" y2="237.65"/><line class="cls-2" x1="42.05" y1="223.71" x2="42.05" y2="235.38"/><line class="cls-2" x1="42.05" y1="239.92" x2="42.05" y2="251.59"/><line class="cls-2" x1="61.13" y1="215.84" x2="66.01" y2="215.84"/><line class="cls-2" x1="67.91" y1="215.84" x2="72.8" y2="215.84"/><line class="cls-2" x1="66.96" y1="210" x2="66.96" y2="214.89"/><line class="cls-2" x1="66.96" y1="216.79" x2="66.96" y2="221.67"/><line class="cls-2" x1="485" y1="293.87" x2="252.83" y2="293.87"/><line class="cls-2" x1="152.79" y1="293.87" y2="293.87"/><line class="cls-2" x1="449.5" y1="223.65" x2="519.33" y2="223.65"/><line class="cls-2" x1="434.25" y1="215.84" x2="455.58" y2="215.84"/><path class="cls-5" d="M491.16,82.82s-8.77,60.56-111.52,70.33"/><path class="cls-5" d="M143.29,153.15c-17-4-79.31-6.72-72,35.5,10,57.46,149.88,71,167.94,142"/><path class="cls-3" d="M160.41,172.34c8.71,4.79,17.79,8.84,26.89,12.83,35.45,15.56,70.83,31.23,106.51,46.27,17.7,7.46,35.45,14.79,53.14,22.25v-112H143.29v19.63C148.88,165.16,154.43,169,160.41,172.34Z"/><path class="cls-1" d="M378.63,218.81A134.16,134.16,0,0,0,246,36.9a28,28,0,0,1,16.32,8.84c13.72,15.65,5.67,45.15-18,65.89s-54,24.87-67.67,9.22S171,75.7,194.61,55a83.08,83.08,0,0,1,16.92-11.54A133.83,133.83,0,0,0,129,120.76Z"/><path class="cls-1" d="M300.24,40.08l.46,1.37L295,39.22l-2-17,13.16,5.17-1.27.69A10,10,0,0,0,300.24,40.08Z"/><path class="cls-2" d="M242.89,29.73A134.2,134.2,0,0,1,370.33,212.9q-.58,1.48-1.2,2.94l-249.59-98q.54-1.49,1.12-3C134.32,80,161.76,56,192.75,40.55"/><polygon class="cls-6" points="251.39 75.78 219.31 89.76 233.3 121.84 236.6 120.4 224.06 91.63 252.83 79.08 251.39 75.78"/><polygon class="cls-6" points="295.23 93 291.93 94.44 304.47 123.21 275.7 135.75 277.14 139.06 309.21 125.07 295.23 93"/><rect class="cls-6" x="238.83" y="104.85" width="50.17" height="3.6" transform="translate(0.65 214.9) rotate(-44.36)"/><polyline class="cls-7" points="237.32 122.05 224.06 91.63 254.48 78.36"/><polyline class="cls-7" points="295.95 94.65 309.21 125.07 278.79 138.34"/><line class="cls-7" x1="284.22" y1="90.04" x2="248.36" y2="125.12"/><path class="cls-2" d="M306.07,27.6S295.84,31,301.24,41.66"/><path class="cls-2" d="M292.7,22.35s5.16,9.48-6,13.59"/><polyline class="cls-2" points="143.29 275.97 143.29 141.69 180.72 141.69"/><polyline class="cls-2" points="229 160.2 155.14 160.2 155.14 217.61 331.31 217.61 331.31 200.22"/><path class="cls-2" d="M353.58,62.4s20.75,14.68,30.25,48"/><path class="cls-2" d="M379.65,68.9s7.93,6.79,11.18,21.14"/><polyline class="cls-2" points="310.81 229.49 251.22 229.49 251.22 267.4 331.31 267.4 331.31 231.73"/></g></g></svg>